<?xml version="1.0" encoding="utf-8" standalone="no"?>
<!DOCTYPE svg PUBLIC "-//W3C//DTD SVG 1.1//EN"
  "http://www.w3.org/Graphics/SVG/1.1/DTD/svg11.dtd">
<svg xmlns:xlink="http://www.w3.org/1999/xlink" width="576pt" height="324pt" viewBox="0 0 576 324" xmlns="http://www.w3.org/2000/svg" version="1.1">
 <metadata>
  <rdf:RDF xmlns:dc="http://purl.org/dc/elements/1.1/" xmlns:cc="http://creativecommons.org/ns#" xmlns:rdf="http://www.w3.org/1999/02/22-rdf-syntax-ns#">
   <cc:Work>
    <dc:type rdf:resource="http://purl.org/dc/dcmitype/StillImage"/>
    <dc:date>2024-04-25T14:52:53.936745</dc:date>
    <dc:format>image/svg+xml</dc:format>
    <dc:creator>
     <cc:Agent>
      <dc:title>Matplotlib v3.8.3, https://matplotlib.org/</dc:title>
     </cc:Agent>
    </dc:creator>
   </cc:Work>
  </rdf:RDF>
 </metadata>
 <defs>
  <style type="text/css">*{stroke-linejoin: round; stroke-linecap: butt}</style>
 </defs>
 <g id="figure_1">
  <g id="patch_1">
   <path d="M 0 324 
L 576 324 
L 576 0 
L 0 0 
z
" style="fill: #ffffff"/>
  </g>
  <g id="axes_1">
   <g id="patch_2">
    <path d="M 72 288.36 
L 518.4 288.36 
L 518.4 38.88 
L 72 38.88 
z
" style="fill: #ffffff"/>
   </g>
   <g id="matplotlib.axis_1">
    <g id="xtick_1">
     <g id="line2d_1">
      <path d="M 92.290909 288.36 
L 92.290909 38.88 
" clip-path="url(#p0e8daad1bd)" style="fill: none; stroke: #b0b0b0; stroke-width: 0.8; stroke-linecap: square"/>
     </g>
     <g id="line2d_2">
      <defs>
       <path id="m11a8029d22" d="M 0 0 
L 0 3.5 
" style="stroke: #000000; stroke-width: 0.8"/>
      </defs>
      <g>
       <use xlink:href="#m11a8029d22" x="92.290909" y="288.36" style="stroke: #000000; stroke-width: 0.8"/>
      </g>
     </g>
     <g id="text_1">
      <!-- 400 -->
      <g transform="translate(82.747159 302.958438) scale(0.1 -0.1)">
       <defs>
        <path id="DejaVuSans-34" d="M 2419 4116 
L 825 1625 
L 2419 1625 
L 2419 4116 
z
M 2253 4666 
L 3047 4666 
L 3047 1625 
L 3713 1625 
L 3713 1100 
L 3047 1100 
L 3047 0 
L 2419 0 
L 2419 1100 
L 313 1100 
L 313 1709 
L 2253 4666 
z
" transform="scale(0.015625)"/>
        <path id="DejaVuSans-30" d="M 2034 4250 
Q 1547 4250 1301 3770 
Q 1056 3291 1056 2328 
Q 1056 1369 1301 889 
Q 1547 409 2034 409 
Q 2525 409 2770 889 
Q 3016 1369 3016 2328 
Q 3016 3291 2770 3770 
Q 2525 4250 2034 4250 
z
M 2034 4750 
Q 2819 4750 3233 4129 
Q 3647 3509 3647 2328 
Q 3647 1150 3233 529 
Q 2819 -91 2034 -91 
Q 1250 -91 836 529 
Q 422 1150 422 2328 
Q 422 3509 836 4129 
Q 1250 4750 2034 4750 
z
" transform="scale(0.015625)"/>
       </defs>
       <use xlink:href="#DejaVuSans-34"/>
       <use xlink:href="#DejaVuSans-30" x="63.623047"/>
       <use xlink:href="#DejaVuSans-30" x="127.246094"/>
      </g>
     </g>
    </g>
    <g id="xtick_2">
     <g id="line2d_3">
      <path d="M 166.076033 288.36 
L 166.076033 38.88 
" clip-path="url(#p0e8daad1bd)" style="fill: none; stroke: #b0b0b0; stroke-width: 0.8; stroke-linecap: square"/>
     </g>
     <g id="line2d_4">
      <g>
       <use xlink:href="#m11a8029d22" x="166.076033" y="288.36" style="stroke: #000000; stroke-width: 0.8"/>
      </g>
     </g>
     <g id="text_2">
      <!-- 600 -->
      <g transform="translate(156.532283 302.958438) scale(0.1 -0.1)">
       <defs>
        <path id="DejaVuSans-36" d="M 2113 2584 
Q 1688 2584 1439 2293 
Q 1191 2003 1191 1497 
Q 1191 994 1439 701 
Q 1688 409 2113 409 
Q 2538 409 2786 701 
Q 3034 994 3034 1497 
Q 3034 2003 2786 2293 
Q 2538 2584 2113 2584 
z
M 3366 4563 
L 3366 3988 
Q 3128 4100 2886 4159 
Q 2644 4219 2406 4219 
Q 1781 4219 1451 3797 
Q 1122 3375 1075 2522 
Q 1259 2794 1537 2939 
Q 1816 3084 2150 3084 
Q 2853 3084 3261 2657 
Q 3669 2231 3669 1497 
Q 3669 778 3244 343 
Q 2819 -91 2113 -91 
Q 1303 -91 875 529 
Q 447 1150 447 2328 
Q 447 3434 972 4092 
Q 1497 4750 2381 4750 
Q 2619 4750 2861 4703 
Q 3103 4656 3366 4563 
z
" transform="scale(0.015625)"/>
       </defs>
       <use xlink:href="#DejaVuSans-36"/>
       <use xlink:href="#DejaVuSans-30" x="63.623047"/>
       <use xlink:href="#DejaVuSans-30" x="127.246094"/>
      </g>
     </g>
    </g>
    <g id="xtick_3">
     <g id="line2d_5">
      <path d="M 239.861157 288.36 
L 239.861157 38.88 
" clip-path="url(#p0e8daad1bd)" style="fill: none; stroke: #b0b0b0; stroke-width: 0.8; stroke-linecap: square"/>
     </g>
     <g id="line2d_6">
      <g>
       <use xlink:href="#m11a8029d22" x="239.861157" y="288.36" style="stroke: #000000; stroke-width: 0.8"/>
      </g>
     </g>
     <g id="text_3">
      <!-- 800 -->
      <g transform="translate(230.317407 302.958438) scale(0.1 -0.1)">
       <defs>
        <path id="DejaVuSans-38" d="M 2034 2216 
Q 1584 2216 1326 1975 
Q 1069 1734 1069 1313 
Q 1069 891 1326 650 
Q 1584 409 2034 409 
Q 2484 409 2743 651 
Q 3003 894 3003 1313 
Q 3003 1734 2745 1975 
Q 2488 2216 2034 2216 
z
M 1403 2484 
Q 997 2584 770 2862 
Q 544 3141 544 3541 
Q 544 4100 942 4425 
Q 1341 4750 2034 4750 
Q 2731 4750 3128 4425 
Q 3525 4100 3525 3541 
Q 3525 3141 3298 2862 
Q 3072 2584 2669 2484 
Q 3125 2378 3379 2068 
Q 3634 1759 3634 1313 
Q 3634 634 3220 271 
Q 2806 -91 2034 -91 
Q 1263 -91 848 271 
Q 434 634 434 1313 
Q 434 1759 690 2068 
Q 947 2378 1403 2484 
z
M 1172 3481 
Q 1172 3119 1398 2916 
Q 1625 2713 2034 2713 
Q 2441 2713 2670 2916 
Q 2900 3119 2900 3481 
Q 2900 3844 2670 4047 
Q 2441 4250 2034 4250 
Q 1625 4250 1398 4047 
Q 1172 3844 1172 3481 
z
" transform="scale(0.015625)"/>
       </defs>
       <use xlink:href="#DejaVuSans-38"/>
       <use xlink:href="#DejaVuSans-30" x="63.623047"/>
       <use xlink:href="#DejaVuSans-30" x="127.246094"/>
      </g>
     </g>
    </g>
    <g id="xtick_4">
     <g id="line2d_7">
      <path d="M 313.646281 288.36 
L 313.646281 38.88 
" clip-path="url(#p0e8daad1bd)" style="fill: none; stroke: #b0b0b0; stroke-width: 0.8; stroke-linecap: square"/>
     </g>
     <g id="line2d_8">
      <g>
       <use xlink:href="#m11a8029d22" x="313.646281" y="288.36" style="stroke: #000000; stroke-width: 0.8"/>
      </g>
     </g>
     <g id="text_4">
      <!-- 1000 -->
      <g transform="translate(300.921281 302.958438) scale(0.1 -0.1)">
       <defs>
        <path id="DejaVuSans-31" d="M 794 531 
L 1825 531 
L 1825 4091 
L 703 3866 
L 703 4441 
L 1819 4666 
L 2450 4666 
L 2450 531 
L 3481 531 
L 3481 0 
L 794 0 
L 794 531 
z
" transform="scale(0.015625)"/>
       </defs>
       <use xlink:href="#DejaVuSans-31"/>
       <use xlink:href="#DejaVuSans-30" x="63.623047"/>
       <use xlink:href="#DejaVuSans-30" x="127.246094"/>
       <use xlink:href="#DejaVuSans-30" x="190.869141"/>
      </g>
     </g>
    </g>
    <g id="xtick_5">
     <g id="line2d_9">
      <path d="M 387.431405 288.36 
L 387.431405 38.88 
" clip-path="url(#p0e8daad1bd)" style="fill: none; stroke: #b0b0b0; stroke-width: 0.8; stroke-linecap: square"/>
     </g>
     <g id="line2d_10">
      <g>
       <use xlink:href="#m11a8029d22" x="387.431405" y="288.36" style="stroke: #000000; stroke-width: 0.8"/>
      </g>
     </g>
     <g id="text_5">
      <!-- 1200 -->
      <g transform="translate(374.706405 302.958438) scale(0.1 -0.1)">
       <defs>
        <path id="DejaVuSans-32" d="M 1228 531 
L 3431 531 
L 3431 0 
L 469 0 
L 469 531 
Q 828 903 1448 1529 
Q 2069 2156 2228 2338 
Q 2531 2678 2651 2914 
Q 2772 3150 2772 3378 
Q 2772 3750 2511 3984 
Q 2250 4219 1831 4219 
Q 1534 4219 1204 4116 
Q 875 4013 500 3803 
L 500 4441 
Q 881 4594 1212 4672 
Q 1544 4750 1819 4750 
Q 2544 4750 2975 4387 
Q 3406 4025 3406 3419 
Q 3406 3131 3298 2873 
Q 3191 2616 2906 2266 
Q 2828 2175 2409 1742 
Q 1991 1309 1228 531 
z
" transform="scale(0.015625)"/>
       </defs>
       <use xlink:href="#DejaVuSans-31"/>
       <use xlink:href="#DejaVuSans-32" x="63.623047"/>
       <use xlink:href="#DejaVuSans-30" x="127.246094"/>
       <use xlink:href="#DejaVuSans-30" x="190.869141"/>
      </g>
     </g>
    </g>
    <g id="xtick_6">
     <g id="line2d_11">
      <path d="M 461.216529 288.36 
L 461.216529 38.88 
" clip-path="url(#p0e8daad1bd)" style="fill: none; stroke: #b0b0b0; stroke-width: 0.8; stroke-linecap: square"/>
     </g>
     <g id="line2d_12">
      <g>
       <use xlink:href="#m11a8029d22" x="461.216529" y="288.36" style="stroke: #000000; stroke-width: 0.8"/>
      </g>
     </g>
     <g id="text_6">
      <!-- 1400 -->
      <g transform="translate(448.491529 302.958438) scale(0.1 -0.1)">
       <use xlink:href="#DejaVuSans-31"/>
       <use xlink:href="#DejaVuSans-34" x="63.623047"/>
       <use xlink:href="#DejaVuSans-30" x="127.246094"/>
       <use xlink:href="#DejaVuSans-30" x="190.869141"/>
      </g>
     </g>
    </g>
    <g id="text_7">
     <!-- Wavelength (nm) -->
     <g transform="translate(243.369375 318.15625) scale(0.12 -0.12)">
      <defs>
       <path id="DejaVuSans-57" d="M 213 4666 
L 850 4666 
L 1831 722 
L 2809 4666 
L 3519 4666 
L 4500 722 
L 5478 4666 
L 6119 4666 
L 4947 0 
L 4153 0 
L 3169 4050 
L 2175 0 
L 1381 0 
L 213 4666 
z
" transform="scale(0.015625)"/>
       <path id="DejaVuSans-61" d="M 2194 1759 
Q 1497 1759 1228 1600 
Q 959 1441 959 1056 
Q 959 750 1161 570 
Q 1363 391 1709 391 
Q 2188 391 2477 730 
Q 2766 1069 2766 1631 
L 2766 1759 
L 2194 1759 
z
M 3341 1997 
L 3341 0 
L 2766 0 
L 2766 531 
Q 2569 213 2275 61 
Q 1981 -91 1556 -91 
Q 1019 -91 701 211 
Q 384 513 384 1019 
Q 384 1609 779 1909 
Q 1175 2209 1959 2209 
L 2766 2209 
L 2766 2266 
Q 2766 2663 2505 2880 
Q 2244 3097 1772 3097 
Q 1472 3097 1187 3025 
Q 903 2953 641 2809 
L 641 3341 
Q 956 3463 1253 3523 
Q 1550 3584 1831 3584 
Q 2591 3584 2966 3190 
Q 3341 2797 3341 1997 
z
" transform="scale(0.015625)"/>
       <path id="DejaVuSans-76" d="M 191 3500 
L 800 3500 
L 1894 563 
L 2988 3500 
L 3597 3500 
L 2284 0 
L 1503 0 
L 191 3500 
z
" transform="scale(0.015625)"/>
       <path id="DejaVuSans-65" d="M 3597 1894 
L 3597 1613 
L 953 1613 
Q 991 1019 1311 708 
Q 1631 397 2203 397 
Q 2534 397 2845 478 
Q 3156 559 3463 722 
L 3463 178 
Q 3153 47 2828 -22 
Q 2503 -91 2169 -91 
Q 1331 -91 842 396 
Q 353 884 353 1716 
Q 353 2575 817 3079 
Q 1281 3584 2069 3584 
Q 2775 3584 3186 3129 
Q 3597 2675 3597 1894 
z
M 3022 2063 
Q 3016 2534 2758 2815 
Q 2500 3097 2075 3097 
Q 1594 3097 1305 2825 
Q 1016 2553 972 2059 
L 3022 2063 
z
" transform="scale(0.015625)"/>
       <path id="DejaVuSans-6c" d="M 603 4863 
L 1178 4863 
L 1178 0 
L 603 0 
L 603 4863 
z
" transform="scale(0.015625)"/>
       <path id="DejaVuSans-6e" d="M 3513 2113 
L 3513 0 
L 2938 0 
L 2938 2094 
Q 2938 2591 2744 2837 
Q 2550 3084 2163 3084 
Q 1697 3084 1428 2787 
Q 1159 2491 1159 1978 
L 1159 0 
L 581 0 
L 581 3500 
L 1159 3500 
L 1159 2956 
Q 1366 3272 1645 3428 
Q 1925 3584 2291 3584 
Q 2894 3584 3203 3211 
Q 3513 2838 3513 2113 
z
" transform="scale(0.015625)"/>
       <path id="DejaVuSans-67" d="M 2906 1791 
Q 2906 2416 2648 2759 
Q 2391 3103 1925 3103 
Q 1463 3103 1205 2759 
Q 947 2416 947 1791 
Q 947 1169 1205 825 
Q 1463 481 1925 481 
Q 2391 481 2648 825 
Q 2906 1169 2906 1791 
z
M 3481 434 
Q 3481 -459 3084 -895 
Q 2688 -1331 1869 -1331 
Q 1566 -1331 1297 -1286 
Q 1028 -1241 775 -1147 
L 775 -588 
Q 1028 -725 1275 -790 
Q 1522 -856 1778 -856 
Q 2344 -856 2625 -561 
Q 2906 -266 2906 331 
L 2906 616 
Q 2728 306 2450 153 
Q 2172 0 1784 0 
Q 1141 0 747 490 
Q 353 981 353 1791 
Q 353 2603 747 3093 
Q 1141 3584 1784 3584 
Q 2172 3584 2450 3431 
Q 2728 3278 2906 2969 
L 2906 3500 
L 3481 3500 
L 3481 434 
z
" transform="scale(0.015625)"/>
       <path id="DejaVuSans-74" d="M 1172 4494 
L 1172 3500 
L 2356 3500 
L 2356 3053 
L 1172 3053 
L 1172 1153 
Q 1172 725 1289 603 
Q 1406 481 1766 481 
L 2356 481 
L 2356 0 
L 1766 0 
Q 1100 0 847 248 
Q 594 497 594 1153 
L 594 3053 
L 172 3053 
L 172 3500 
L 594 3500 
L 594 4494 
L 1172 4494 
z
" transform="scale(0.015625)"/>
       <path id="DejaVuSans-68" d="M 3513 2113 
L 3513 0 
L 2938 0 
L 2938 2094 
Q 2938 2591 2744 2837 
Q 2550 3084 2163 3084 
Q 1697 3084 1428 2787 
Q 1159 2491 1159 1978 
L 1159 0 
L 581 0 
L 581 4863 
L 1159 4863 
L 1159 2956 
Q 1366 3272 1645 3428 
Q 1925 3584 2291 3584 
Q 2894 3584 3203 3211 
Q 3513 2838 3513 2113 
z
" transform="scale(0.015625)"/>
       <path id="DejaVuSans-20" transform="scale(0.015625)"/>
       <path id="DejaVuSans-28" d="M 1984 4856 
Q 1566 4138 1362 3434 
Q 1159 2731 1159 2009 
Q 1159 1288 1364 580 
Q 1569 -128 1984 -844 
L 1484 -844 
Q 1016 -109 783 600 
Q 550 1309 550 2009 
Q 550 2706 781 3412 
Q 1013 4119 1484 4856 
L 1984 4856 
z
" transform="scale(0.015625)"/>
       <path id="DejaVuSans-6d" d="M 3328 2828 
Q 3544 3216 3844 3400 
Q 4144 3584 4550 3584 
Q 5097 3584 5394 3201 
Q 5691 2819 5691 2113 
L 5691 0 
L 5113 0 
L 5113 2094 
Q 5113 2597 4934 2840 
Q 4756 3084 4391 3084 
Q 3944 3084 3684 2787 
Q 3425 2491 3425 1978 
L 3425 0 
L 2847 0 
L 2847 2094 
Q 2847 2600 2669 2842 
Q 2491 3084 2119 3084 
Q 1678 3084 1418 2786 
Q 1159 2488 1159 1978 
L 1159 0 
L 581 0 
L 581 3500 
L 1159 3500 
L 1159 2956 
Q 1356 3278 1631 3431 
Q 1906 3584 2284 3584 
Q 2666 3584 2933 3390 
Q 3200 3197 3328 2828 
z
" transform="scale(0.015625)"/>
       <path id="DejaVuSans-29" d="M 513 4856 
L 1013 4856 
Q 1481 4119 1714 3412 
Q 1947 2706 1947 2009 
Q 1947 1309 1714 600 
Q 1481 -109 1013 -844 
L 513 -844 
Q 928 -128 1133 580 
Q 1338 1288 1338 2009 
Q 1338 2731 1133 3434 
Q 928 4138 513 4856 
z
" transform="scale(0.015625)"/>
      </defs>
      <use xlink:href="#DejaVuSans-57"/>
      <use xlink:href="#DejaVuSans-61" x="92.501953"/>
      <use xlink:href="#DejaVuSans-76" x="153.78125"/>
      <use xlink:href="#DejaVuSans-65" x="212.960938"/>
      <use xlink:href="#DejaVuSans-6c" x="274.484375"/>
      <use xlink:href="#DejaVuSans-65" x="302.267578"/>
      <use xlink:href="#DejaVuSans-6e" x="363.791016"/>
      <use xlink:href="#DejaVuSans-67" x="427.169922"/>
      <use xlink:href="#DejaVuSans-74" x="490.646484"/>
      <use xlink:href="#DejaVuSans-68" x="529.855469"/>
      <use xlink:href="#DejaVuSans-20" x="593.234375"/>
      <use xlink:href="#DejaVuSans-28" x="625.021484"/>
      <use xlink:href="#DejaVuSans-6e" x="664.035156"/>
      <use xlink:href="#DejaVuSans-6d" x="727.414062"/>
      <use xlink:href="#DejaVuSans-29" x="824.826172"/>
     </g>
    </g>
   </g>
   <g id="matplotlib.axis_2">
    <g id="ytick_1">
     <g id="line2d_13">
      <path d="M 72 282.734342 
L 518.4 282.734342 
" clip-path="url(#p0e8daad1bd)" style="fill: none; stroke: #b0b0b0; stroke-width: 0.8; stroke-linecap: square"/>
     </g>
     <g id="line2d_14">
      <defs>
       <path id="m9b1b0eea31" d="M 0 0 
L -3.5 0 
" style="stroke: #000000; stroke-width: 0.8"/>
      </defs>
      <g>
       <use xlink:href="#m9b1b0eea31" x="72" y="282.734342" style="stroke: #000000; stroke-width: 0.8"/>
      </g>
     </g>
     <g id="text_8">
      <!-- 5 -->
      <g transform="translate(58.6375 286.53356) scale(0.1 -0.1)">
       <defs>
        <path id="DejaVuSans-35" d="M 691 4666 
L 3169 4666 
L 3169 4134 
L 1269 4134 
L 1269 2991 
Q 1406 3038 1543 3061 
Q 1681 3084 1819 3084 
Q 2600 3084 3056 2656 
Q 3513 2228 3513 1497 
Q 3513 744 3044 326 
Q 2575 -91 1722 -91 
Q 1428 -91 1123 -41 
Q 819 9 494 109 
L 494 744 
Q 775 591 1075 516 
Q 1375 441 1709 441 
Q 2250 441 2565 725 
Q 2881 1009 2881 1497 
Q 2881 1984 2565 2268 
Q 2250 2553 1709 2553 
Q 1456 2553 1204 2497 
Q 953 2441 691 2322 
L 691 4666 
z
" transform="scale(0.015625)"/>
       </defs>
       <use xlink:href="#DejaVuSans-35"/>
      </g>
     </g>
    </g>
    <g id="ytick_2">
     <g id="line2d_15">
      <path d="M 72 246.975008 
L 518.4 246.975008 
" clip-path="url(#p0e8daad1bd)" style="fill: none; stroke: #b0b0b0; stroke-width: 0.8; stroke-linecap: square"/>
     </g>
     <g id="line2d_16">
      <g>
       <use xlink:href="#m9b1b0eea31" x="72" y="246.975008" style="stroke: #000000; stroke-width: 0.8"/>
      </g>
     </g>
     <g id="text_9">
      <!-- 10 -->
      <g transform="translate(52.275 250.774226) scale(0.1 -0.1)">
       <use xlink:href="#DejaVuSans-31"/>
       <use xlink:href="#DejaVuSans-30" x="63.623047"/>
      </g>
     </g>
    </g>
    <g id="ytick_3">
     <g id="line2d_17">
      <path d="M 72 211.215674 
L 518.4 211.215674 
" clip-path="url(#p0e8daad1bd)" style="fill: none; stroke: #b0b0b0; stroke-width: 0.8; stroke-linecap: square"/>
     </g>
     <g id="line2d_18">
      <g>
       <use xlink:href="#m9b1b0eea31" x="72" y="211.215674" style="stroke: #000000; stroke-width: 0.8"/>
      </g>
     </g>
     <g id="text_10">
      <!-- 15 -->
      <g transform="translate(52.275 215.014892) scale(0.1 -0.1)">
       <use xlink:href="#DejaVuSans-31"/>
       <use xlink:href="#DejaVuSans-35" x="63.623047"/>
      </g>
     </g>
    </g>
    <g id="ytick_4">
     <g id="line2d_19">
      <path d="M 72 175.45634 
L 518.4 175.45634 
" clip-path="url(#p0e8daad1bd)" style="fill: none; stroke: #b0b0b0; stroke-width: 0.8; stroke-linecap: square"/>
     </g>
     <g id="line2d_20">
      <g>
       <use xlink:href="#m9b1b0eea31" x="72" y="175.45634" style="stroke: #000000; stroke-width: 0.8"/>
      </g>
     </g>
     <g id="text_11">
      <!-- 20 -->
      <g transform="translate(52.275 179.255558) scale(0.1 -0.1)">
       <use xlink:href="#DejaVuSans-32"/>
       <use xlink:href="#DejaVuSans-30" x="63.623047"/>
      </g>
     </g>
    </g>
    <g id="ytick_5">
     <g id="line2d_21">
      <path d="M 72 139.697006 
L 518.4 139.697006 
" clip-path="url(#p0e8daad1bd)" style="fill: none; stroke: #b0b0b0; stroke-width: 0.8; stroke-linecap: square"/>
     </g>
     <g id="line2d_22">
      <g>
       <use xlink:href="#m9b1b0eea31" x="72" y="139.697006" style="stroke: #000000; stroke-width: 0.8"/>
      </g>
     </g>
     <g id="text_12">
      <!-- 25 -->
      <g transform="translate(52.275 143.496224) scale(0.1 -0.1)">
       <use xlink:href="#DejaVuSans-32"/>
       <use xlink:href="#DejaVuSans-35" x="63.623047"/>
      </g>
     </g>
    </g>
    <g id="ytick_6">
     <g id="line2d_23">
      <path d="M 72 103.937672 
L 518.4 103.937672 
" clip-path="url(#p0e8daad1bd)" style="fill: none; stroke: #b0b0b0; stroke-width: 0.8; stroke-linecap: square"/>
     </g>
     <g id="line2d_24">
      <g>
       <use xlink:href="#m9b1b0eea31" x="72" y="103.937672" style="stroke: #000000; stroke-width: 0.8"/>
      </g>
     </g>
     <g id="text_13">
      <!-- 30 -->
      <g transform="translate(52.275 107.73689) scale(0.1 -0.1)">
       <defs>
        <path id="DejaVuSans-33" d="M 2597 2516 
Q 3050 2419 3304 2112 
Q 3559 1806 3559 1356 
Q 3559 666 3084 287 
Q 2609 -91 1734 -91 
Q 1441 -91 1130 -33 
Q 819 25 488 141 
L 488 750 
Q 750 597 1062 519 
Q 1375 441 1716 441 
Q 2309 441 2620 675 
Q 2931 909 2931 1356 
Q 2931 1769 2642 2001 
Q 2353 2234 1838 2234 
L 1294 2234 
L 1294 2753 
L 1863 2753 
Q 2328 2753 2575 2939 
Q 2822 3125 2822 3475 
Q 2822 3834 2567 4026 
Q 2313 4219 1838 4219 
Q 1578 4219 1281 4162 
Q 984 4106 628 3988 
L 628 4550 
Q 988 4650 1302 4700 
Q 1616 4750 1894 4750 
Q 2613 4750 3031 4423 
Q 3450 4097 3450 3541 
Q 3450 3153 3228 2886 
Q 3006 2619 2597 2516 
z
" transform="scale(0.015625)"/>
       </defs>
       <use xlink:href="#DejaVuSans-33"/>
       <use xlink:href="#DejaVuSans-30" x="63.623047"/>
      </g>
     </g>
    </g>
    <g id="ytick_7">
     <g id="line2d_25">
      <path d="M 72 68.178338 
L 518.4 68.178338 
" clip-path="url(#p0e8daad1bd)" style="fill: none; stroke: #b0b0b0; stroke-width: 0.8; stroke-linecap: square"/>
     </g>
     <g id="line2d_26">
      <g>
       <use xlink:href="#m9b1b0eea31" x="72" y="68.178338" style="stroke: #000000; stroke-width: 0.8"/>
      </g>
     </g>
     <g id="text_14">
      <!-- 35 -->
      <g transform="translate(52.275 71.977556) scale(0.1 -0.1)">
       <use xlink:href="#DejaVuSans-33"/>
       <use xlink:href="#DejaVuSans-35" x="63.623047"/>
      </g>
     </g>
    </g>
    <g id="text_15">
     <!-- Scattering Coefficient (mm⁻¹) -->
     <g transform="translate(46.195312 237.736406) rotate(-90) scale(0.1 -0.1)">
      <defs>
       <path id="DejaVuSans-53" d="M 3425 4513 
L 3425 3897 
Q 3066 4069 2747 4153 
Q 2428 4238 2131 4238 
Q 1616 4238 1336 4038 
Q 1056 3838 1056 3469 
Q 1056 3159 1242 3001 
Q 1428 2844 1947 2747 
L 2328 2669 
Q 3034 2534 3370 2195 
Q 3706 1856 3706 1288 
Q 3706 609 3251 259 
Q 2797 -91 1919 -91 
Q 1588 -91 1214 -16 
Q 841 59 441 206 
L 441 856 
Q 825 641 1194 531 
Q 1563 422 1919 422 
Q 2459 422 2753 634 
Q 3047 847 3047 1241 
Q 3047 1584 2836 1778 
Q 2625 1972 2144 2069 
L 1759 2144 
Q 1053 2284 737 2584 
Q 422 2884 422 3419 
Q 422 4038 858 4394 
Q 1294 4750 2059 4750 
Q 2388 4750 2728 4690 
Q 3069 4631 3425 4513 
z
" transform="scale(0.015625)"/>
       <path id="DejaVuSans-63" d="M 3122 3366 
L 3122 2828 
Q 2878 2963 2633 3030 
Q 2388 3097 2138 3097 
Q 1578 3097 1268 2742 
Q 959 2388 959 1747 
Q 959 1106 1268 751 
Q 1578 397 2138 397 
Q 2388 397 2633 464 
Q 2878 531 3122 666 
L 3122 134 
Q 2881 22 2623 -34 
Q 2366 -91 2075 -91 
Q 1284 -91 818 406 
Q 353 903 353 1747 
Q 353 2603 823 3093 
Q 1294 3584 2113 3584 
Q 2378 3584 2631 3529 
Q 2884 3475 3122 3366 
z
" transform="scale(0.015625)"/>
       <path id="DejaVuSans-72" d="M 2631 2963 
Q 2534 3019 2420 3045 
Q 2306 3072 2169 3072 
Q 1681 3072 1420 2755 
Q 1159 2438 1159 1844 
L 1159 0 
L 581 0 
L 581 3500 
L 1159 3500 
L 1159 2956 
Q 1341 3275 1631 3429 
Q 1922 3584 2338 3584 
Q 2397 3584 2469 3576 
Q 2541 3569 2628 3553 
L 2631 2963 
z
" transform="scale(0.015625)"/>
       <path id="DejaVuSans-69" d="M 603 3500 
L 1178 3500 
L 1178 0 
L 603 0 
L 603 3500 
z
M 603 4863 
L 1178 4863 
L 1178 4134 
L 603 4134 
L 603 4863 
z
" transform="scale(0.015625)"/>
       <path id="DejaVuSans-43" d="M 4122 4306 
L 4122 3641 
Q 3803 3938 3442 4084 
Q 3081 4231 2675 4231 
Q 1875 4231 1450 3742 
Q 1025 3253 1025 2328 
Q 1025 1406 1450 917 
Q 1875 428 2675 428 
Q 3081 428 3442 575 
Q 3803 722 4122 1019 
L 4122 359 
Q 3791 134 3420 21 
Q 3050 -91 2638 -91 
Q 1578 -91 968 557 
Q 359 1206 359 2328 
Q 359 3453 968 4101 
Q 1578 4750 2638 4750 
Q 3056 4750 3426 4639 
Q 3797 4528 4122 4306 
z
" transform="scale(0.015625)"/>
       <path id="DejaVuSans-6f" d="M 1959 3097 
Q 1497 3097 1228 2736 
Q 959 2375 959 1747 
Q 959 1119 1226 758 
Q 1494 397 1959 397 
Q 2419 397 2687 759 
Q 2956 1122 2956 1747 
Q 2956 2369 2687 2733 
Q 2419 3097 1959 3097 
z
M 1959 3584 
Q 2709 3584 3137 3096 
Q 3566 2609 3566 1747 
Q 3566 888 3137 398 
Q 2709 -91 1959 -91 
Q 1206 -91 779 398 
Q 353 888 353 1747 
Q 353 2609 779 3096 
Q 1206 3584 1959 3584 
z
" transform="scale(0.015625)"/>
       <path id="DejaVuSans-66" d="M 2375 4863 
L 2375 4384 
L 1825 4384 
Q 1516 4384 1395 4259 
Q 1275 4134 1275 3809 
L 1275 3500 
L 2222 3500 
L 2222 3053 
L 1275 3053 
L 1275 0 
L 697 0 
L 697 3053 
L 147 3053 
L 147 3500 
L 697 3500 
L 697 3744 
Q 697 4328 969 4595 
Q 1241 4863 1831 4863 
L 2375 4863 
z
" transform="scale(0.015625)"/>
       <path id="DejaVuSans-207b" d="M 428 3359 
L 2950 3359 
L 2950 3063 
L 428 3063 
L 428 3359 
z
" transform="scale(0.015625)"/>
       <path id="DejaVuSans-b9" d="M 488 2431 
L 1125 2431 
L 1125 4341 
L 428 4213 
L 428 4575 
L 1147 4697 
L 1575 4697 
L 1575 2431 
L 2216 2431 
L 2216 2088 
L 488 2088 
L 488 2431 
z
" transform="scale(0.015625)"/>
      </defs>
      <use xlink:href="#DejaVuSans-53"/>
      <use xlink:href="#DejaVuSans-63" x="63.476562"/>
      <use xlink:href="#DejaVuSans-61" x="118.457031"/>
      <use xlink:href="#DejaVuSans-74" x="179.736328"/>
      <use xlink:href="#DejaVuSans-74" x="218.945312"/>
      <use xlink:href="#DejaVuSans-65" x="258.154297"/>
      <use xlink:href="#DejaVuSans-72" x="319.677734"/>
      <use xlink:href="#DejaVuSans-69" x="360.791016"/>
      <use xlink:href="#DejaVuSans-6e" x="388.574219"/>
      <use xlink:href="#DejaVuSans-67" x="451.953125"/>
      <use xlink:href="#DejaVuSans-20" x="515.429688"/>
      <use xlink:href="#DejaVuSans-43" x="547.216797"/>
      <use xlink:href="#DejaVuSans-6f" x="617.041016"/>
      <use xlink:href="#DejaVuSans-65" x="678.222656"/>
      <use xlink:href="#DejaVuSans-66" x="739.746094"/>
      <use xlink:href="#DejaVuSans-66" x="774.951172"/>
      <use xlink:href="#DejaVuSans-69" x="810.15625"/>
      <use xlink:href="#DejaVuSans-63" x="837.939453"/>
      <use xlink:href="#DejaVuSans-69" x="892.919922"/>
      <use xlink:href="#DejaVuSans-65" x="920.703125"/>
      <use xlink:href="#DejaVuSans-6e" x="982.226562"/>
      <use xlink:href="#DejaVuSans-74" x="1045.605469"/>
      <use xlink:href="#DejaVuSans-20" x="1084.814453"/>
      <use xlink:href="#DejaVuSans-28" x="1116.601562"/>
      <use xlink:href="#DejaVuSans-6d" x="1155.615234"/>
      <use xlink:href="#DejaVuSans-6d" x="1253.027344"/>
      <use xlink:href="#DejaVuSans-207b" x="1350.439453"/>
      <use xlink:href="#DejaVuSans-b9" x="1403.222656"/>
      <use xlink:href="#DejaVuSans-29" x="1443.310547"/>
     </g>
    </g>
   </g>
   <g id="line2d_27">
    <defs>
     <path id="m12e1538888" d="M 0 1 
C 0.265203 1 0.51958 0.894634 0.707107 0.707107 
C 0.894634 0.51958 1 0.265203 1 0 
C 1 -0.265203 0.894634 -0.51958 0.707107 -0.707107 
C 0.51958 -0.894634 0.265203 -1 0 -1 
C -0.265203 -1 -0.51958 -0.894634 -0.707107 -0.707107 
C -0.894634 -0.51958 -1 -0.265203 -1 0 
C -1 0.265203 -0.894634 0.51958 -0.707107 0.707107 
C -0.51958 0.894634 -0.265203 1 0 1 
z
" style="stroke: #0000ff"/>
    </defs>
    <g clip-path="url(#p0e8daad1bd)">
     <use xlink:href="#m12e1538888" x="498.109091" y="277.02" style="fill: #0000ff; stroke: #0000ff"/>
     <use xlink:href="#m12e1538888" x="494.419835" y="276.612344" style="fill: #0000ff; stroke: #0000ff"/>
     <use xlink:href="#m12e1538888" x="490.730579" y="276.025891" style="fill: #0000ff; stroke: #0000ff"/>
     <use xlink:href="#m12e1538888" x="487.041322" y="275.367919" style="fill: #0000ff; stroke: #0000ff"/>
     <use xlink:href="#m12e1538888" x="483.352066" y="274.488239" style="fill: #0000ff; stroke: #0000ff"/>
     <use xlink:href="#m12e1538888" x="479.66281" y="273.780204" style="fill: #0000ff; stroke: #0000ff"/>
     <use xlink:href="#m12e1538888" x="475.973554" y="272.986347" style="fill: #0000ff; stroke: #0000ff"/>
     <use xlink:href="#m12e1538888" x="472.284298" y="271.856352" style="fill: #0000ff; stroke: #0000ff"/>
     <use xlink:href="#m12e1538888" x="468.595041" y="270.847939" style="fill: #0000ff; stroke: #0000ff"/>
     <use xlink:href="#m12e1538888" x="464.905785" y="269.539147" style="fill: #0000ff; stroke: #0000ff"/>
     <use xlink:href="#m12e1538888" x="461.216529" y="267.98004" style="fill: #0000ff; stroke: #0000ff"/>
     <use xlink:href="#m12e1538888" x="457.527273" y="266.864349" style="fill: #0000ff; stroke: #0000ff"/>
     <use xlink:href="#m12e1538888" x="453.838017" y="266.40663" style="fill: #0000ff; stroke: #0000ff"/>
     <use xlink:href="#m12e1538888" x="450.14876" y="265.741506" style="fill: #0000ff; stroke: #0000ff"/>
     <use xlink:href="#m12e1538888" x="446.459504" y="265.040623" style="fill: #0000ff; stroke: #0000ff"/>
     <use xlink:href="#m12e1538888" x="442.770248" y="264.547144" style="fill: #0000ff; stroke: #0000ff"/>
     <use xlink:href="#m12e1538888" x="439.080992" y="263.932084" style="fill: #0000ff; stroke: #0000ff"/>
     <use xlink:href="#m12e1538888" x="435.391736" y="263.15253" style="fill: #0000ff; stroke: #0000ff"/>
     <use xlink:href="#m12e1538888" x="431.702479" y="262.108358" style="fill: #0000ff; stroke: #0000ff"/>
     <use xlink:href="#m12e1538888" x="428.013223" y="260.9283" style="fill: #0000ff; stroke: #0000ff"/>
     <use xlink:href="#m12e1538888" x="424.323967" y="260.005709" style="fill: #0000ff; stroke: #0000ff"/>
     <use xlink:href="#m12e1538888" x="420.634711" y="258.818499" style="fill: #0000ff; stroke: #0000ff"/>
     <use xlink:href="#m12e1538888" x="416.945455" y="257.6742" style="fill: #0000ff; stroke: #0000ff"/>
     <use xlink:href="#m12e1538888" x="413.256198" y="256.723002" style="fill: #0000ff; stroke: #0000ff"/>
     <use xlink:href="#m12e1538888" x="409.566942" y="255.707437" style="fill: #0000ff; stroke: #0000ff"/>
     <use xlink:href="#m12e1538888" x="405.877686" y="254.520227" style="fill: #0000ff; stroke: #0000ff"/>
     <use xlink:href="#m12e1538888" x="402.18843" y="253.490358" style="fill: #0000ff; stroke: #0000ff"/>
     <use xlink:href="#m12e1538888" x="398.499174" y="252.324604" style="fill: #0000ff; stroke: #0000ff"/>
     <use xlink:href="#m12e1538888" x="394.809917" y="251.316191" style="fill: #0000ff; stroke: #0000ff"/>
     <use xlink:href="#m12e1538888" x="391.120661" y="249.900121" style="fill: #0000ff; stroke: #0000ff"/>
     <use xlink:href="#m12e1538888" x="387.431405" y="248.705759" style="fill: #0000ff; stroke: #0000ff"/>
     <use xlink:href="#m12e1538888" x="383.742149" y="247.282538" style="fill: #0000ff; stroke: #0000ff"/>
     <use xlink:href="#m12e1538888" x="380.052893" y="244.707866" style="fill: #0000ff; stroke: #0000ff"/>
     <use xlink:href="#m12e1538888" x="376.363636" y="243.42053" style="fill: #0000ff; stroke: #0000ff"/>
     <use xlink:href="#m12e1538888" x="372.67438" y="242.876988" style="fill: #0000ff; stroke: #0000ff"/>
     <use xlink:href="#m12e1538888" x="368.985124" y="241.754145" style="fill: #0000ff; stroke: #0000ff"/>
     <use xlink:href="#m12e1538888" x="365.295868" y="240.431049" style="fill: #0000ff; stroke: #0000ff"/>
     <use xlink:href="#m12e1538888" x="361.606612" y="239.165169" style="fill: #0000ff; stroke: #0000ff"/>
     <use xlink:href="#m12e1538888" x="357.917355" y="237.71334" style="fill: #0000ff; stroke: #0000ff"/>
     <use xlink:href="#m12e1538888" x="354.228099" y="236.547586" style="fill: #0000ff; stroke: #0000ff"/>
     <use xlink:href="#m12e1538888" x="350.538843" y="235.14582" style="fill: #0000ff; stroke: #0000ff"/>
     <use xlink:href="#m12e1538888" x="346.849587" y="233.357853" style="fill: #0000ff; stroke: #0000ff"/>
     <use xlink:href="#m12e1538888" x="343.160331" y="231.884569" style="fill: #0000ff; stroke: #0000ff"/>
     <use xlink:href="#m12e1538888" x="339.471074" y="230.28255" style="fill: #0000ff; stroke: #0000ff"/>
     <use xlink:href="#m12e1538888" x="335.781818" y="228.716292" style="fill: #0000ff; stroke: #0000ff"/>
     <use xlink:href="#m12e1538888" x="332.092562" y="227.228703" style="fill: #0000ff; stroke: #0000ff"/>
     <use xlink:href="#m12e1538888" x="328.403306" y="225.519407" style="fill: #0000ff; stroke: #0000ff"/>
     <use xlink:href="#m12e1538888" x="324.71405" y="223.99606" style="fill: #0000ff; stroke: #0000ff"/>
     <use xlink:href="#m12e1538888" x="321.024793" y="222.093663" style="fill: #0000ff; stroke: #0000ff"/>
     <use xlink:href="#m12e1538888" x="317.335537" y="220.405822" style="fill: #0000ff; stroke: #0000ff"/>
     <use xlink:href="#m12e1538888" x="313.646281" y="218.496274" style="fill: #0000ff; stroke: #0000ff"/>
     <use xlink:href="#m12e1538888" x="309.957025" y="216.786978" style="fill: #0000ff; stroke: #0000ff"/>
     <use xlink:href="#m12e1538888" x="306.267769" y="214.884581" style="fill: #0000ff; stroke: #0000ff"/>
     <use xlink:href="#m12e1538888" x="302.578512" y="212.989337" style="fill: #0000ff; stroke: #0000ff"/>
     <use xlink:href="#m12e1538888" x="298.889256" y="211.108396" style="fill: #0000ff; stroke: #0000ff"/>
     <use xlink:href="#m12e1538888" x="295.2" y="209.263214" style="fill: #0000ff; stroke: #0000ff"/>
     <use xlink:href="#m12e1538888" x="291.510744" y="207.203476" style="fill: #0000ff; stroke: #0000ff"/>
     <use xlink:href="#m12e1538888" x="287.821488" y="205.215257" style="fill: #0000ff; stroke: #0000ff"/>
     <use xlink:href="#m12e1538888" x="284.132231" y="203.334316" style="fill: #0000ff; stroke: #0000ff"/>
     <use xlink:href="#m12e1538888" x="280.442975" y="201.081478" style="fill: #0000ff; stroke: #0000ff"/>
     <use xlink:href="#m12e1538888" x="276.753719" y="198.742818" style="fill: #0000ff; stroke: #0000ff"/>
     <use xlink:href="#m12e1538888" x="273.064463" y="196.475676" style="fill: #0000ff; stroke: #0000ff"/>
     <use xlink:href="#m12e1538888" x="269.375207" y="194.179927" style="fill: #0000ff; stroke: #0000ff"/>
     <use xlink:href="#m12e1538888" x="265.68595" y="192.005759" style="fill: #0000ff; stroke: #0000ff"/>
     <use xlink:href="#m12e1538888" x="261.996694" y="189.566973" style="fill: #0000ff; stroke: #0000ff"/>
     <use xlink:href="#m12e1538888" x="258.307438" y="186.248507" style="fill: #0000ff; stroke: #0000ff"/>
     <use xlink:href="#m12e1538888" x="254.618182" y="183.137445" style="fill: #0000ff; stroke: #0000ff"/>
     <use xlink:href="#m12e1538888" x="250.928926" y="180.505558" style="fill: #0000ff; stroke: #0000ff"/>
     <use xlink:href="#m12e1538888" x="247.239669" y="177.823607" style="fill: #0000ff; stroke: #0000ff"/>
     <use xlink:href="#m12e1538888" x="243.550413" y="175.463491" style="fill: #0000ff; stroke: #0000ff"/>
     <use xlink:href="#m12e1538888" x="239.861157" y="173.367994" style="fill: #0000ff; stroke: #0000ff"/>
     <use xlink:href="#m12e1538888" x="236.171901" y="170.914904" style="fill: #0000ff; stroke: #0000ff"/>
     <use xlink:href="#m12e1538888" x="232.482645" y="168.690674" style="fill: #0000ff; stroke: #0000ff"/>
     <use xlink:href="#m12e1538888" x="228.793388" y="165.586763" style="fill: #0000ff; stroke: #0000ff"/>
     <use xlink:href="#m12e1538888" x="225.104132" y="162.225386" style="fill: #0000ff; stroke: #0000ff"/>
     <use xlink:href="#m12e1538888" x="221.414876" y="159.500525" style="fill: #0000ff; stroke: #0000ff"/>
     <use xlink:href="#m12e1538888" x="217.72562" y="157.090346" style="fill: #0000ff; stroke: #0000ff"/>
     <use xlink:href="#m12e1538888" x="214.036364" y="154.222447" style="fill: #0000ff; stroke: #0000ff"/>
     <use xlink:href="#m12e1538888" x="210.347107" y="150.760943" style="fill: #0000ff; stroke: #0000ff"/>
     <use xlink:href="#m12e1538888" x="206.657851" y="147.857286" style="fill: #0000ff; stroke: #0000ff"/>
     <use xlink:href="#m12e1538888" x="202.968595" y="144.689009" style="fill: #0000ff; stroke: #0000ff"/>
     <use xlink:href="#m12e1538888" x="199.279339" y="141.463517" style="fill: #0000ff; stroke: #0000ff"/>
     <use xlink:href="#m12e1538888" x="195.590083" y="138.137899" style="fill: #0000ff; stroke: #0000ff"/>
     <use xlink:href="#m12e1538888" x="191.900826" y="134.783673" style="fill: #0000ff; stroke: #0000ff"/>
     <use xlink:href="#m12e1538888" x="188.21157" y="131.59394" style="fill: #0000ff; stroke: #0000ff"/>
     <use xlink:href="#m12e1538888" x="184.522314" y="128.361297" style="fill: #0000ff; stroke: #0000ff"/>
     <use xlink:href="#m12e1538888" x="180.833058" y="124.763908" style="fill: #0000ff; stroke: #0000ff"/>
     <use xlink:href="#m12e1538888" x="177.143802" y="121.030633" style="fill: #0000ff; stroke: #0000ff"/>
     <use xlink:href="#m12e1538888" x="173.454545" y="117.490459" style="fill: #0000ff; stroke: #0000ff"/>
     <use xlink:href="#m12e1538888" x="169.765289" y="113.657059" style="fill: #0000ff; stroke: #0000ff"/>
     <use xlink:href="#m12e1538888" x="166.076033" y="110.124036" style="fill: #0000ff; stroke: #0000ff"/>
     <use xlink:href="#m12e1538888" x="162.386777" y="106.118991" style="fill: #0000ff; stroke: #0000ff"/>
     <use xlink:href="#m12e1538888" x="158.697521" y="102.43578" style="fill: #0000ff; stroke: #0000ff"/>
     <use xlink:href="#m12e1538888" x="155.008264" y="98.802631" style="fill: #0000ff; stroke: #0000ff"/>
     <use xlink:href="#m12e1538888" x="151.319008" y="94.819041" style="fill: #0000ff; stroke: #0000ff"/>
     <use xlink:href="#m12e1538888" x="147.629752" y="91.278867" style="fill: #0000ff; stroke: #0000ff"/>
     <use xlink:href="#m12e1538888" x="143.940496" y="88.096287" style="fill: #0000ff; stroke: #0000ff"/>
     <use xlink:href="#m12e1538888" x="140.25124" y="84.127001" style="fill: #0000ff; stroke: #0000ff"/>
     <use xlink:href="#m12e1538888" x="136.561983" y="80.350815" style="fill: #0000ff; stroke: #0000ff"/>
     <use xlink:href="#m12e1538888" x="132.872727" y="76.774881" style="fill: #0000ff; stroke: #0000ff"/>
     <use xlink:href="#m12e1538888" x="129.183471" y="73.62806" style="fill: #0000ff; stroke: #0000ff"/>
     <use xlink:href="#m12e1538888" x="125.494215" y="69.894786" style="fill: #0000ff; stroke: #0000ff"/>
     <use xlink:href="#m12e1538888" x="121.804959" y="66.833787" style="fill: #0000ff; stroke: #0000ff"/>
     <use xlink:href="#m12e1538888" x="118.115702" y="63.422346" style="fill: #0000ff; stroke: #0000ff"/>
     <use xlink:href="#m12e1538888" x="114.426446" y="60.132487" style="fill: #0000ff; stroke: #0000ff"/>
     <use xlink:href="#m12e1538888" x="110.73719" y="57.328956" style="fill: #0000ff; stroke: #0000ff"/>
     <use xlink:href="#m12e1538888" x="107.047934" y="54.761435" style="fill: #0000ff; stroke: #0000ff"/>
     <use xlink:href="#m12e1538888" x="103.358678" y="52.25113" style="fill: #0000ff; stroke: #0000ff"/>
     <use xlink:href="#m12e1538888" x="99.669421" y="50.22" style="fill: #0000ff; stroke: #0000ff"/>
     <use xlink:href="#m12e1538888" x="95.980165" y="55.548141" style="fill: #0000ff; stroke: #0000ff"/>
     <use xlink:href="#m12e1538888" x="92.290909" y="77.354183" style="fill: #0000ff; stroke: #0000ff"/>
    </g>
   </g>
   <g id="patch_3">
    <path d="M 72 288.36 
L 72 38.88 
" style="fill: none; stroke: #000000; stroke-width: 0.8; stroke-linejoin: miter; stroke-linecap: square"/>
   </g>
   <g id="patch_4">
    <path d="M 518.4 288.36 
L 518.4 38.88 
" style="fill: none; stroke: #000000; stroke-width: 0.8; stroke-linejoin: miter; stroke-linecap: square"/>
   </g>
   <g id="patch_5">
    <path d="M 72 288.36 
L 518.4 288.36 
" style="fill: none; stroke: #000000; stroke-width: 0.8; stroke-linejoin: miter; stroke-linecap: square"/>
   </g>
   <g id="patch_6">
    <path d="M 72 38.88 
L 518.4 38.88 
" style="fill: none; stroke: #000000; stroke-width: 0.8; stroke-linejoin: miter; stroke-linecap: square"/>
   </g>
  </g>
 </g>
 <defs>
  <clipPath id="p0e8daad1bd">
   <rect x="72" y="38.88" width="446.4" height="249.48"/>
  </clipPath>
 </defs>
</svg>
